<svg xmlns="http://www.w3.org/2000/svg" width="140.133" height="115.492" viewBox="0 0 140.133 115.492"><g transform="translate(-1 -46.014)"><g transform="translate(1 46.014)"><g transform="translate(4.301 0)"><g transform="translate(0.898 0.908)"><path d="M172.577,220.9c-6.347,5.863-14.767,8.807-23.045,9.669-23.005,2.384-44.431-14.347-44.088-31.254a7.292,7.292,0,0,1,.573-2.093c7.15-21.812,43.228-28.371,63.5-8.955,6.063,5.809,9.815,13.109,9.668,21.5C179.161,211.4,177.188,216.64,172.577,220.9Z" transform="translate(-81.781 -141.6)" fill="#fc09b2"/><path d="M329.736,90.1a10.007,10.007,0,0,1-.516,2.207c-.359.9.279.339,1.351,2.022,4.776,7.493.331,21.522-9.015,25.118-2.774,1.067-.271-1.55-8.731-9.539-.236-.223-.653-.387-.512-.8.206-.61,6.92-.813,9.654-8.722a4.047,4.047,0,0,0,.141-1.924c-.043-.3-.149-.381-.472-.316-9.933,1.994-23.584-12.206-17.27-14.869a3.747,3.747,0,0,1,1.212-.319,11.976,11.976,0,0,1,4.3.314c.8.248,1.657.278,2.442.605a.462.462,0,0,0,.571-.659,26.345,26.345,0,0,0-9.273-10.051.351.351,0,0,1-.018-.585,13.712,13.712,0,0,1,1.667-1.209c8.782-4.863,20.931,1.911,23.94,12.257A14.67,14.67,0,0,1,329.736,90.1Z" transform="translate(-225.093 -63.899)" fill="#fc09b2"/><path d="M114.106,73.327c-.887-.5-.926-.453-1.269.513-1.067,3.006,1.173,9.235,5.781,11.934,2.215,1.3-2.953,1.133-9.25,7.433-1.057,1.057-1,.913-2.066.178-6.382-4.41-8.339-17.773-2.75-24.895,2.476-3.155,3.64-2.064,3.56-3.287a10.186,10.186,0,0,1,.326-2.95c3.046-13.272,22-18.519,29.3-9.227,1.4,1.779.659,1.557-1.735,2.4-4.564,1.6-8.732,4.85-9.667,6.153a.426.426,0,0,0,.317.68c.96-.05,1.9.188,2.852.167a4.243,4.243,0,0,1,1.571.242c.958.347,2.192.336,3.543,1.5C139.865,68.7,121.889,77.693,114.106,73.327Z" transform="translate(-78.75 -48.332)" fill="#fc09b2"/><path d="M297.88,391.449a1.908,1.908,0,0,1-3.113.362c-1.761-1.829-4.431-9.082-15.924-15.428-6.546-3.615-10.432-7.9-9.257-8.21a52.891,52.891,0,0,0,9.9-2.378c4.367-1.568,17.731,8.443,19.095,20.175C298.768,387.612,298.716,390.03,297.88,391.449Z" transform="translate(-200.849 -278.789)" fill="#fc09b2"/><path d="M81.493,339.538a2.61,2.61,0,0,1,1.681.618c6.965,5.251,9.572,4.855,8.828,5.947-.728,1.069-3.988,2.383-5.294,2.846-6.261,2.22-11.075,1.755-19.551,6.892-3.485,2.113-3.3,2.605-6.016,4.551a1.9,1.9,0,0,1-2.832-.658,3.735,3.735,0,0,1-.33-1.894C58.525,350.466,68.864,339.905,81.493,339.538Z" transform="translate(-47.301 -259.835)" fill="#fc09b2"/><path d="M22.2,200.424c.57-2.53,3.07-4.777,4.289-2.486a4.182,4.182,0,0,1,.331,1.327,12.564,12.564,0,0,0,17.785,9.578c.312-.142.617-.3.936-.427a.327.327,0,0,1,.438.358c-.174.767-.021-.153-1.426,3.735-.569,1.573-.291,3.512.031,5.9.12.895.059,1.024-.821,1.341C32.742,223.726,19.434,212.73,22.2,200.424Z" transform="translate(-21.056 -156.3)" fill="#fc09b2"/><path d="M370.066,278.866c-1.113-.8-1.042-.944-.646-1.728,2.823-5.59,1.425-5.914,1.56-9.617a.309.309,0,0,1,.428-.238c.764.52,4.83,5.348,11.773,3.846,4.685-1.014,7.264-3.7,9.2-7.409,1.52-2.915,4.155-.163,3.784,3.13C394.727,279.6,379.266,285.464,370.066,278.866Z" transform="translate(-273.318 -203.874)" fill="#fc09b2"/><path d="M23.7,299.726c-1.581-1.25-4.494-4.293-4.693-6.308-.084-.854.353-1.283,1.156-1.02,8.093,2.644,16.64,2.03,22.392-.523,1.828-.811.805-.407,3.915,4.6,2.05,3.3,3.088,3.132,2.078,4.218C43.881,305.715,31.8,306.128,23.7,299.726Z" transform="translate(-18.996 -224.98)" fill="#fc09b2"/><path d="M333.761,337.9c-1.133-1.949.675-.525,6.439-6.736.392-.423.75-.9,1.206-.58,1.826,1.27,6.461,6.195,17.6,7.506,3.658.431,6.073-.432,4.8,1.965-.885,1.672-5.1,4-7.676,4.695C348.149,346.909,337.9,345.016,333.761,337.9Z" transform="translate(-247.378 -253.256)" fill="#fc09b2"/></g><g transform="translate(14.164 46.165)" opacity="0.25"><path d="M106.7,355.122c-.108-.6-.088-.736.435-1.041,3.177-1.85,5.791-3.124,13.352-4.065,1.939-.242,1.934.821,6.29,2.718.918.4.836.882.147,1.392-4.27,3.16-11.646,4.032-14.747,5.021C110.525,359.674,107.186,357.793,106.7,355.122Z" transform="translate(-95.922 -312.678)" fill="#000e3f"/><path d="M282.315,382.17c-2.4-1.777-10.352-5.384-13.033-9.875-.541-.905,1.2-.437,5.786-1.647a2.363,2.363,0,0,1,1.667.114c4.352,1.985,8.916,4.405,11.9,8.135a.7.7,0,0,1,.058.852,4.517,4.517,0,0,1-1.983,1.994C285.568,382.274,283.333,382.924,282.315,382.17Z" transform="translate(-213.976 -327.616)" fill="#000e3f"/><path d="M344.9,237.584a4.189,4.189,0,0,1-.088.552c-.5,1.392-.386,1.92-1.835.649-3.592-3.149-2.888-3.559-5.309-5.5-1.337-1.072.289-2.121-.939-8.908a35.268,35.268,0,0,0-3.08-9.324c-.143-.328.245-.374.379-.258,6.914,5.942,10.9,13.506,10.887,22.549A1.126,1.126,0,0,1,344.9,237.584Z" transform="translate(-260.769 -214.448)" fill="#000e3f"/><path d="M380.624,288.545c-.793,2.634-2.715,4.129-5.149,5.117a1.3,1.3,0,0,1-.891.048,14.181,14.181,0,0,1-4.88-2.437c-1.167-.928-.253-.752,1.053-4.487a7.515,7.515,0,0,0,.453-2.8c-.178-4.4-.274-3.117-.236-3.646.133-1.889,1.482,3.683,7.612,6.652C380.339,287.836,380.8,287.539,380.624,288.545Z" transform="translate(-286.592 -261.816)" fill="#000e3f"/><path d="M71.357,251.537a2.255,2.255,0,0,1-.356-.189,7.92,7.92,0,0,1-3.529-6.113c-.025-.535-.046-1.032.633-1.134a16.668,16.668,0,0,0,9.935-3.88c.535-.431.727-.665.951-.507s.15.092-.743,2.295c-1.161,2.864-.986,3.941-.521,7.391.118.875.064,1.017-.7,1.3A14.621,14.621,0,0,1,71.357,251.537Z" transform="translate(-67.463 -232.554)" fill="#000e3f"/><path d="M79.9,305.235c-.9-1.839-.393-.879,3.431-2.528a20.79,20.79,0,0,0,5.011-3.352c.3-.211.527.026.685.36.556,1.176,1.36,2.2,2,3.326a12.666,12.666,0,0,0,1.075,1.329c.866,1.134,1.253,1.163-.076,2.4a13.631,13.631,0,0,1-5.436,2.79C85.565,309.881,81.39,308.285,79.9,305.235Z" transform="translate(-76.22 -275.85)" fill="#000e3f"/><path d="M339.252,347.294c-1.576.045-5.043-3.613-5.729-5.408a.6.6,0,0,1,.209-.809,29.985,29.985,0,0,0,4.693-3.612c.767-.666.975-1.033,1.258-.687a17.937,17.937,0,0,0,6.244,6.531c.93.562.96.818.124,1.6A8.9,8.9,0,0,1,339.252,347.294Z" transform="translate(-260.65 -302.992)" fill="#000e3f"/><path d="M337.742,213.686c.152.084.032.223-.047.186s-.1-.1-.046-.167C337.665,213.686,337.71,213.692,337.742,213.686Z" transform="translate(-263.678 -213.686)" fill="#000e3f"/></g><g transform="translate(0.901 0.895)"><path d="M178.583,262.158c-2.59,6.826-10.23,14.163-23.215,17.158a44.616,44.616,0,0,1-15.4.788c-18.091-2.215-33.155-15.077-34.3-29.006-.057-.684-.034-.72.578-.926,4.309-1.429,8.073-5.329,12.87-5,5.647.389,9.506,5.547,11.352,10.411.435,1.16.514,2.171,1.013,1.573.172-.208.323-.43.494-.633,6.351-7.558,16.676-5.7,19.968,3.436.664,1.849.524-.761,5.051-4.4,4.827-3.888,10.268-4.077,14.544-.941a14.15,14.15,0,0,1,2.43,2.3,19,19,0,0,0,4.421,4.44.59.59,0,0,1,.256.4A.757.757,0,0,1,178.583,262.158Z" transform="translate(-81.934 -191.271)" fill="#ff8ede"/><path d="M112.705,120.943a12.2,12.2,0,0,0,.21,3.871,13.145,13.145,0,0,0,4.949,7.363c.6.455,1.987.92.992,1.448a40.728,40.728,0,0,0-4.6,2.558,34.841,34.841,0,0,0-5.5,4.46.563.563,0,0,1-.826.049c-8.582-5.545-8.911-22.326-.857-27.65.477-.315.778-.224.971.313a14.093,14.093,0,0,0,4.19,6.181.64.64,0,0,0,.088.073C112.836,119.948,113.11,120.354,112.705,120.943Z" transform="translate(-78.748 -95.187)" fill="#ff8ede"/><path d="M346.176,181.786c-1.715.353-.7-2.647-7.824-9.46-.221-.211-.457-.407-.666-.628-.268-.284-.2-.6.184-.692a12.258,12.258,0,0,0,2.8-.981c5.011-2.524,6.812-7.166,6.737-8.676a.818.818,0,0,1,.611-.949,13.808,13.808,0,0,0,2.043-1.022,12.812,12.812,0,0,0,3.77-3.285c.4-.485.667-1.106,1.318-.525,1.016.908,2.038,3.572,2.341,5.268C358.7,167.627,352.911,180.4,346.176,181.786Z" transform="translate(-250.347 -126.033)" fill="#ff8ede"/><path d="M168.1,49.257c.1-.581.223-.7.806-.786,6.827-.962,12.189,1.932,14.067,5.288,1,1.786-2.768.126-10.732,6.55a11.633,11.633,0,0,0-1.126,1.135.466.466,0,0,0,.359.8c.768-.061,1.523.131,2.279.128a13.261,13.261,0,0,1,4.313.965c1.939.9,2.736,2.186,1.734,4.086-1.262,2.4-4.776,4.252-7.274,5.314-.484.206-.7.035-.715-.23-.053-.841.643-2.291-1.057-4.649-2.1-2.916-5.543-2.745-7.265-5.18C160.844,58.94,166.889,55.988,168.1,49.257Z" transform="translate(-123.462 -48.284)" fill="#ff8ede"/><path d="M314.707,88.063c-2.465.342-5.118,1.94-5.681,4.882-.135.7-.3,1.09-.867.611-3.651-3.069-7.887-8.413-3.73-10.351a3.242,3.242,0,0,1,1.333-.3,12.806,12.806,0,0,1,4.181.365c.756.246,1.579.269,2.328.58a.461.461,0,0,0,.59-.643,16.485,16.485,0,0,0-.778-1.527,27.758,27.758,0,0,0-8.2-8.327c-.45-.236-.651-.549-.254-.858a12.757,12.757,0,0,1,1.579-1.135c4.09-2.271,8.682-1.994,12.9-.238.869.362,1.466.552,1.3,1.432-.615,3.3.69,6.284,1.424,9.182C321.411,84.025,318.91,87.48,314.707,88.063Z" transform="translate(-225.06 -63.857)" fill="#ff8ede"/><path d="M37.9,220.307a.3.3,0,0,1-.3.161c-.106,0-.224-.029-.328-.039a17.712,17.712,0,0,1-14.124-10.882q-.109-.268-.2-.517c-.15-.4-.277-.812-.4-1.222a1.5,1.5,0,0,1-.052-.209A14.52,14.52,0,0,1,22,203.467c.076-2.56.326-4.257,1.9-5.806,1.026-1.008,2.228-.851,2.764.42.42,1.007.333,4.866,3.994,8.414,3.179,3.089,5.586,2.712,5.228,3.549a10.667,10.667,0,0,0-1.128,3.123,7.062,7.062,0,0,0,1.342,5.055,10.4,10.4,0,0,0,1.527,1.535C37.785,219.905,38.042,220.045,37.9,220.307Z" transform="translate(-21.176 -156.299)" fill="#ff8ede"/><path d="M412.466,267.5a17.505,17.505,0,0,1-1.788,5.125,16.118,16.118,0,0,1-1.326,2.089c-.022.03-.048.06-.076.094a17.631,17.631,0,0,1-11.394,6.648,16.244,16.244,0,0,1-5.85-.159.568.568,0,0,1-.159-.058.5.5,0,0,1-.183-.262c-.043-.118.3-.272,1.545-.906a6.911,6.911,0,0,0,3.613-4.878,6.469,6.469,0,0,0,.054-2.056c-.2-1.51-.457-1.671.542-1.713a12.856,12.856,0,0,0,10.731-6.577c.213-.369.389-.749.59-1.114,1.076-1.954,2.736-1.286,3.384.487A5.847,5.847,0,0,1,412.466,267.5Z" transform="translate(-289.685 -203.901)" fill="#ff8ede"/><path d="M331.107,402.85a.108.108,0,0,1-.029-.027c-1.413-1.55-2.23-4.254-6.419-8.318-4.369-4.237-5.373-4.13-5.158-4.582.179-.368,1.057.129,3.088-.635a4.611,4.611,0,0,0,2.968-4.346c-.034-2.862-.915-4.28-.264-3.979a21.023,21.023,0,0,1,3.69,3.575c3.159,4.051,5.985,8.453,6.074,14.146C335.134,403.621,332.563,404.408,331.107,402.85Z" transform="translate(-237.236 -289.88)" fill="#ff8ede"/><path d="M75.96,356.552c-.118.478-6.358,1.694-12.461,6.8a17.69,17.69,0,0,1-2.54,2,1.817,1.817,0,0,1-.272.131c-1.482.57-2.843-.56-2.711-2.721.018-.337.1-.677.151-1.015,2.091-10.032,14.611-15.911,15.172-15.495.34.253-1.353,1.973-1.706,4.161a5.945,5.945,0,0,0-.074,1.35C71.731,355.644,76.113,355.956,75.96,356.552Z" transform="translate(-47.303 -264.687)" fill="#ff8ede"/><path d="M41.933,305.942c.01.191-.154.239-.3.267a18.2,18.2,0,0,1-5.687.229,12.885,12.885,0,0,0-1.452-.062l-.144-.005c-6.909-1.325-11.405-4.589-13.265-7.224a9.1,9.1,0,0,1-1.871-2.849c-.569-1.627.075-2.153,1.132-1.806a36.47,36.47,0,0,0,7.6,1.565c7.257.771,8.37-1.278,7.779.784a6.366,6.366,0,0,0,.009,3.745,7.694,7.694,0,0,0,4.169,4.446C41.028,305.552,41.916,305.577,41.933,305.942Z" transform="translate(-19.004 -227.032)" fill="#ff8ede"/><path d="M364.914,357.724l-.011,0a17.722,17.722,0,0,1-2.786-.205,6.331,6.331,0,0,0-1.139-.03c-4.326-.889-9.479-2.893-6.593-2.872a8.178,8.178,0,0,0,6.758-3.094,5.679,5.679,0,0,0,1.013-2.7c.119-1.1-.03-1.907.57-1.709a33.853,33.853,0,0,0,14.739,3.228C381.91,350.342,374.439,357.706,364.914,357.724Z" transform="translate(-261.984 -265.301)" fill="#ff8ede"/><path d="M270.707,246.636c-2.562-2.791.321-5.955,4.339-5.541,5.918.609,6.931,6.177,2.087,7.268A6.762,6.762,0,0,1,270.707,246.636Z" transform="translate(-201.112 -188.296)" fill="#ff8ede"/><path d="M190.611,234.316a6.866,6.866,0,0,1-7.581-.931c-1.069-.893-1.88-2.908-.529-4.339a4.24,4.24,0,0,1,2.336-1.345C190.945,226.588,194.538,232.084,190.611,234.316Z" transform="translate(-137.238 -178.489)" fill="#ff8ede"/></g><g transform="translate(2.086 28.192)" opacity="0.5"><path d="M221.446,286.878c-.131.348-.351.688-.507,1.01-5.825,12.459-21.353,17.958-35,17.649-4.92-.087-15.183-2.964-20.506-6.247-.331-.207-.925-.3-.852-.806.051-.371.6-.426.93-.6,7.75-4.141,18.194-3.236,27.408-3.257a23.8,23.8,0,0,0,16.86-7.219c3.839-4.067,3.9-5.079,4.555-7.667a14.147,14.147,0,0,1,2.43,2.3,19,19,0,0,0,4.421,4.44A.59.59,0,0,1,221.446,286.878Z" transform="translate(-125.921 -243.685)" fill="#fc09b2"/><path d="M357.59,195.881a21.073,21.073,0,0,1-5.75,11.491,13.557,13.557,0,0,1-5.479,3.431c-1.995.456-.369-2.207-8.1-9.57-.266-.253-.741-.439-.658-.865.131-.674.721,0,3.391-1.443a1.586,1.586,0,0,1,1.588-.024,11.661,11.661,0,0,0,9.223.412,13.919,13.919,0,0,0,5.012-3.521c.218-.17.344-.623.7-.411C357.766,195.526,357.591,195.873,357.59,195.881Z" transform="translate(-251.581 -182.377)" fill="#fc09b2"/><path d="M101.376,148.294c.061-.087.1-.22.192-.261.829-.394,1.951,6.616,9.545,7.788,4.228.652,4.156-.478,4.909.314,4.1,4.311,5.216.82-2.94,6.276a32.218,32.218,0,0,0-4.172,3.557c-.567.524-.632.514-1.275.117-4.667-2.882-7.187-10.922-6.327-16.3A12.5,12.5,0,0,0,101.376,148.294Z" transform="translate(-79.847 -148.017)" fill="#fc09b2"/><path d="M45.078,314.939c.01.191-.154.239-.3.266a18.2,18.2,0,0,1-5.687.229,12.885,12.885,0,0,0-1.452-.062c-7.156-1.464-11.089-4.256-14.29-8.358a.21.21,0,0,1,.019-.2c.37-.373,2.555,1.961,8.083,2.756a24.089,24.089,0,0,0,7.424.01,7.7,7.7,0,0,0,4.169,4.447C44.173,314.548,45.062,314.573,45.078,314.939Z" transform="translate(-23.335 -263.324)" fill="#fc09b2"/><path d="M376.541,365.687a22.535,22.535,0,0,1-11.628,3.817l-.011,0a17.709,17.709,0,0,1-2.786-.205,6.343,6.343,0,0,0-1.139-.03c-4.326-.889-9.479-2.893-6.593-2.872a8.178,8.178,0,0,0,6.758-3.094c.063.026.13.059.214.094a22.212,22.212,0,0,0,14.59,1.944c.3-.076.669-.176.771-.01C376.76,365.392,376.749,365.535,376.541,365.687Z" transform="translate(-263.168 -304.378)" fill="#fc09b2"/><path d="M38.929,245.411a.3.3,0,0,1-.3.161A18.535,18.535,0,0,1,24.177,234.65q-.109-.268-.2-.517a10.168,10.168,0,0,1-.4-1.222,1.5,1.5,0,0,1-.052-.209,2.138,2.138,0,0,1-.054-1.135c.816.354,3.056,4.03,7.794,5.724a11.853,11.853,0,0,0,4.2.931.71.71,0,0,1,.322.05,7.062,7.062,0,0,0,1.342,5.055,10.392,10.392,0,0,0,1.527,1.535C38.817,245.009,39.075,245.149,38.929,245.411Z" transform="translate(-23.393 -208.699)" fill="#fc09b2"/><path d="M410.634,299.221a15.387,15.387,0,0,1-1.281,1.873c-.022.03-.048.06-.076.094a18.666,18.666,0,0,1-12.008,6.576,16.324,16.324,0,0,1-5.037-.039.858.858,0,0,0-.2-.047.57.57,0,0,1-.159-.058.5.5,0,0,1-.183-.263c-.043-.118.3-.272,1.545-.906a6.911,6.911,0,0,0,3.612-4.878.347.347,0,0,1,.07.016,13.382,13.382,0,0,0,4.266.372c4.039-.07,6.968-1.918,9.111-3.049.158-.082.348-.047.382.092A.259.259,0,0,1,410.634,299.221Z" transform="translate(-290.87 -257.582)" fill="#fc09b2"/><path d="M331.584,418.356c-.076.457-.227.534-.477.306a.108.108,0,0,1-.029-.027c-1.413-1.551-2.23-4.254-6.419-8.318-4.369-4.237-5.373-4.13-5.158-4.582.179-.368,1.057.129,3.088-.635a4.612,4.612,0,0,0,2.557-2.407.6.6,0,0,1,.223.185,25.088,25.088,0,0,1,4.751,7.738,22.925,22.925,0,0,1,1.541,6.368A4.895,4.895,0,0,1,331.584,418.356Z" transform="translate(-238.421 -332.989)" fill="#fc09b2"/><path d="M83.056,371.231c-.118.478-6.358,1.694-12.461,6.8a17.7,17.7,0,0,1-2.54,2,.3.3,0,0,1-.218-.067c-.361-.3.366-2.086.614-2.572a26.518,26.518,0,0,1,9.737-10.669c.149-.1.293-.2.428-.28C78.828,370.324,83.209,370.636,83.056,371.231Z" transform="translate(-55.585 -306.663)" fill="#fc09b2"/></g><g transform="translate(33.009 3.594)" opacity="0.5"><path d="M221.576,308.191c-1.077,1.1-1.721,1.509-2.478-.066a17.4,17.4,0,0,1-1.842-8.054,15.674,15.674,0,0,1,.165-2.956c.58-2.939,1.435-5.52,3.87-6.952,1.728-1.017,3.36.134,4.2,1.7C227.952,296.416,225.16,304.515,221.576,308.191Z" transform="translate(-195.104 -226.381)" fill="#fff"/><path d="M145.86,274.083c.749,2.256,3.581,12.611,3.6,12.783a.765.765,0,0,1-1.06.788c-1.624-.717-5.334-3.649-7.956-7.45-1.617-2.344-3.56-6.3-2.871-9.052C138.563,267.2,143.286,266.333,145.86,274.083Z" transform="translate(-137.127 -210.705)" fill="#fff"/><path d="M279.247,310.109c5.64-8.687,8.812-14.957,13.038-14.606,1.567.13,2.388,1.6,2.561,3.022C295.811,306.481,275.629,315.682,279.247,310.109Z" transform="translate(-239.811 -230.529)" fill="#fff"/><path d="M350.349,90.643c1.168,2.831-.722,5.631-3.773,2.739-2.429-2.3-2.971-4.295-7.514-9.046-1.009-1.056-2.539-2.324-2.929-2.882C334.257,78.776,346.76,81.941,350.349,90.643Z" transform="translate(-281.305 -74.403)" fill="#fff"/><path d="M159.817,58.536c1.01.3,1.8.767.681,1.375a49.648,49.648,0,0,0-6.812,3.755c-3.283,2.1-4.636,3.648-7.224,4.6-2.931,1.08-3.888-1.773-2.034-4.008,3.245-3.913,9.4-6.366,13.459-6.094A11.025,11.025,0,0,1,159.817,58.536Z" transform="translate(-141.519 -58.145)" fill="#fff"/><path d="M150.34,189.439c.868-.246,6.594-1.3,5.958.143-.351.8-3.1,1.35-3.812,1.638-11.884,4.8-13.241,11.831-15.643,9.889C133.86,198.7,144.283,191.153,150.34,189.439Z" transform="translate(-136.317 -153.068)" fill="#fff"/></g><path d="M126.6,129.576c4.264.827,5.064.124,6.339.54,1.787.582,1.884,2.6-.357,4.4a19.869,19.869,0,0,1-5.4,3.2c-8.136,3.085-19.6,1.193-24.389-5.772-.648-.943-.733-1.645-1.288-1.36-4.451,2.286-3.246,1.026.993,3.677,7.022,4.391,13.151,13.482,12.824,21.193-.194,4.548-2.932,5.762-4.624,4.7a5.044,5.044,0,0,1-1.9-1.945c-2.972-5.811-8.932-10.774-14.958-14.109-3.166-1.752-7.343-4.576-9.292-7.647-.718-1.131-.75-.289-6.606-.466a34.5,34.5,0,0,1-7.155-.835,47.159,47.159,0,0,1-7.526-2.364c-1.785-.769-.544.879-7.532,3.294-6.278,2.17-8.98,1.317-16.93,5.523-6.012,3.181-5.94,4.87-8.4,5.9-2.421,1.013-4.315-1.075-4-3.989.768-7.1,9.68-16.259,20.623-18.418,3.1-.612,3.84.46.51-2.69-.4-.374-.512-.387-.864-.052-6.256,5.966-18.306,4.931-25.747-.9-1.885-1.445-4.979-4.678-5.206-7.042-.177-1.836,1.442-2.435,3.105-1.786a23.749,23.749,0,0,0,5.574,1.254,29.026,29.026,0,0,0,15.8-2.036c.388-.174.422-.306.313-.735-.258-1.02-.4-1.081-1.286-.779-10.5,3.589-23.2-5.836-22.675-17.527.1-2.15.273-4.242,2.048-6.009,1.13-1.125,2.887-1.568,3.893-.2,1.29,1.755.185,2.816,2.321,6.517a11.763,11.763,0,0,0,8.611,5.629c4.919.482,8.479-1.93,9.446-3.338,2.281-3.325,2.754-2.95,1.808-3.645-6.567-4.823-8.367-16.8-4.3-24.091,2.673-4.794,4.509-4.173,4.662-5.594,1.794-16.6,24.816-23.035,32.275-10.385.515.874.335,1.221-.66,1.416A26.305,26.305,0,0,0,66.038,58.5c-.177.152-.229.433.1.481,2.439.358,2.268,0,5.231,1.078,1.97.717,3.541,2.589,2.649,4.822a9.956,9.956,0,0,1-3.859,4.109c-5.5,3.425-11.878,5.16-18.09,2.983-.512-.18-.648-.108-.673.367a11.426,11.426,0,0,0,6.348,10.7,1.159,1.159,0,0,0,.974.047c14.913-5.433,30.466-3.489,43.62,6.609a1.565,1.565,0,0,0,1.378.325,11.165,11.165,0,0,0,8.652-7.213c.263-.681.694-1.694-.03-1.591a24.449,24.449,0,0,1-2.858-.04,20.188,20.188,0,0,1-7.627-2.947,28.954,28.954,0,0,1-5.712-4.91c-2.531-2.786-4.272-7-.927-8.7a6.521,6.521,0,0,1,3.572-.592,10.385,10.385,0,0,1,2.929.408,4.152,4.152,0,0,0,1.017.152c1.268.142-3.462-5.9-8.211-8.7-.783-.463-1.277-.8-.143-1.8,10.089-8.9,28.152,1.779,27.919,16.749-.04,2.6-.923,3.129-.064,4.219,6.236,7.9,1.052,23.765-9.114,27.3-.505.176-.551.279-.336.764.9,2.025.914,3.18,1.637,4.266a11.685,11.685,0,0,0,19.464-.182c.928-1.42,1.059-2.867,2.667-3.42,1.852-.637,3.215,1.231,3.663,3.181.851,3.7-1.737,11.507-9.428,15.472a17.623,17.623,0,0,1-16.4.153c-1.932-1.033-2.011-1.852-2.666-1.021s-.545.91-.1,1.335a28.259,28.259,0,0,0,9.509,5.378A25.358,25.358,0,0,0,126.6,129.576ZM41,102.329a7.121,7.121,0,0,0-.3,2.6c.992,19.636,29.657,37,55.729,26.644,12.129-4.817,17.234-13.9,17.2-18.2C113.491,98.646,100.9,87.044,86.21,82.99,68.058,77.982,46.618,85.229,41,102.329Zm61.579-50.161a11.513,11.513,0,0,0-6.7,2.326c-.429.335-.434.4.05.721a28.187,28.187,0,0,1,6.345,5.9,24.431,24.431,0,0,1,2.134,3.1,4.744,4.744,0,0,1,.444.929.777.777,0,0,1-.815,1.126,3.95,3.95,0,0,1-1.231-.245,15.128,15.128,0,0,0-5.3-.708c-1.637.139-3,.969-2.831,2.457a4.879,4.879,0,0,0,.417,1.656,12.053,12.053,0,0,0,1.156,1.974,22.985,22.985,0,0,0,8.415,6.909c7.466,3.557,9.48-.177,9.415,2.589-.084,3.555-3.29,8.322-8.83,10.088-.4.127-.943.259-.725.509a35.339,35.339,0,0,1,7.278,9.486.451.451,0,0,0,.566.261c9.742-2.883,14.711-18.828,8.569-25.758a1.64,1.64,0,0,1-.4-1.886,9.313,9.313,0,0,0,.432-4.174,18.163,18.163,0,0,0-5.649-11.924C112.549,54.781,106.277,51.979,102.577,52.168ZM43.728,89.137A8.182,8.182,0,0,0,45.5,90.756c.68.444.671.456,1.243-.068a35.467,35.467,0,0,1,3.843-3.253c9.271-6.332,6.012-.462,1.256-8.266a10.536,10.536,0,0,1-1.434-8.236c.245-.753.636-.974,1.5-.5a11.141,11.141,0,0,0,5.529,1.208,21.985,21.985,0,0,0,13.376-4.694,6.454,6.454,0,0,0,2-2.473c.694-1.515-.526-2.7-2.12-3.3-3.1-1.156-5.354-.676-6.412-1.013a.8.8,0,0,1-.411-1.286c.883-1.172,5.494-4.909,11.078-6.67.993-.313,1.363-.219.012-1.743C66.608,41.036,47.527,48.566,46.441,61.8c-.127,1.552.13,1.267-1.333,2.31a10.8,10.8,0,0,0-2.464,2.37C38.43,72.175,38.169,82.52,43.728,89.137Zm53.127,43.986a2.634,2.634,0,0,0-1.461.221c-8.063,2.764-10.236,1.731-9.6,2.743,1.591,2.516,6.236,5.536,9.035,7.091,10.828,6.014,14.132,13.058,15.7,15.174.566.763,1.864,1.086,2.4.449a3.529,3.529,0,0,0,.989-2.147,26.736,26.736,0,0,0,.063-2.971C113.253,144.736,104.268,134.851,96.854,133.123ZM27.92,145.5a1.628,1.628,0,0,0,2.42.593c2.471-1.9,3.271-2.944,6.716-4.957,9.668-5.647,12.993-3.78,21.206-7.439a13.42,13.42,0,0,0,1.905-1.046c1.134-.746.973-.737-.025-1.229-9.058-4.466-6.926-5.522-10.52-5.37-5.266.224-13.09,3.559-18.342,9.963C29.5,138.181,26.9,142.813,27.92,145.5Zm4.355-36.013a12.75,12.75,0,0,0,7.218-.627.51.51,0,0,0,.31-.637c-.613-3.946-.744-5.1,1.033-9.1a.413.413,0,0,0,.025-.32c-.174-.29-1.13.41-2.421.775a12.909,12.909,0,0,1-15.711-7.909c-.994-2.566-.613-3.474-1.262-4.251a.894.894,0,0,0-1.011-.33c-3.5.955-4.854,13.274,4.856,19.753A14.793,14.793,0,0,0,32.274,109.489ZM119.774,123a20.467,20.467,0,0,0,2.277.244c12.143,0,18.264-11.315,16.879-16.316-.289-1.042-1.552-2.794-2.611-1.413a4.869,4.869,0,0,0-.516.889c-3.324,7.031-12.708,9.772-19.078,5.094-1.208-.887-1.729-1.478-1.915-1.33a.4.4,0,0,0-.093.3c.037.511.418,3.561.029,4.783-1.333,4.185-2.277,4.471-1.641,4.936a15.306,15.306,0,0,0,2.611,1.647A12.788,12.788,0,0,0,119.774,123Zm11.358,11.074a5.1,5.1,0,0,0,1.693-1.825c1.045-2.19-5.212,1.1-16.171-4.436-7.291-3.681-5.5-5.217-7.077-3.533-6.256,6.669-7.781,4.052-5.277,7.524C108.535,137.676,122.1,140.838,131.132,134.074Zm-85.74-12.253c.948-.851.9-.94.1-1.823a26.158,26.158,0,0,1-2.638-3.864c-1.78-2.813-1.187-3.446-2.36-2.993a29.449,29.449,0,0,1-10.678,2.313c-6.935.324-9.179-1.19-10.607-1.319-.786-.071-2.215-.912-2.149.288a4.727,4.727,0,0,0,.779,1.879,18.549,18.549,0,0,0,7.076,6.183C31.646,125.868,41.506,125.31,45.392,121.821Z" transform="translate(-15.714 -45.014)" fill="#000e3f"/><path d="M205.864,207.471a2.956,2.956,0,0,1-5.831-.971,2.956,2.956,0,1,1,5.831.971Z" transform="translate(-149.561 -160.497)" fill="#000e3f"/><path d="M276.713,218.413a2.981,2.981,0,0,1,3.381-2.516,3.07,3.07,0,0,1,2.474,3.343,2.958,2.958,0,0,1-3.418,2.495A2.9,2.9,0,0,1,276.713,218.413Z" transform="translate(-205.261 -169.105)" fill="#000e3f"/><path d="M239.1,221.54a.569.569,0,0,1,.539.5,3.053,3.053,0,0,1,.036,1.022,5.946,5.946,0,0,1-3.969,4.639c-3.747,1.246-6.908-2.955-5.909-6.73.337-1.275,1.441-.778,1.222.223-.969,4.425,3.485,7.259,6.284,3.929C239.034,223.07,237.935,221.527,239.1,221.54Z" transform="translate(-171.071 -172.259)" fill="#000e3f"/></g><g transform="translate(0 10.503)"><path d="M432.382,158.922c1.032-4.511,4.29-13.652,7.493-17.7a4.49,4.49,0,0,1,7.389,5.067c-2.633,4.469-10.05,10.83-13.809,13.365A.7.7,0,0,1,432.382,158.922Z" transform="translate(-314.027 -124.159)" fill="#fd8a02"/><path d="M451.2,201.719c2.268-2.9,7.706-8.39,11.383-10.223a3.575,3.575,0,0,1,3.613,6.15c-3.408,2.332-10.9,4.41-14.472,4.967A.557.557,0,0,1,451.2,201.719Z" transform="translate(-327.625 -161.634)" fill="#fd8a02"/><path d="M46.24,105.266c.266-4.62-.316-14.306-2.266-19.084a4.49,4.49,0,0,0-8.508,2.808c1.283,5.026,6.634,13.2,9.538,16.684A.7.7,0,0,0,46.24,105.266Z" transform="translate(-25.657 -83.388)" fill="#fd8a02"/><path d="M14.081,139.7c-1.37-3.42-5.063-10.206-8.084-12.99a3.575,3.575,0,0,0-5.184,4.9c2.624,3.189,9.244,7.274,12.514,8.8A.557.557,0,0,0,14.081,139.7Z" transform="translate(0 -114.163)" fill="#fd8a02"/></g></g></g></svg>