<svg xmlns="http://www.w3.org/2000/svg" xmlns:xlink="http://www.w3.org/1999/xlink" width="24" height="24" viewBox="0 0 24 24"><defs><linearGradient id="a" x1="0.5" x2="0.5" y2="1" gradientUnits="objectBoundingBox"><stop offset="0" stop-color="#fd3a69"/><stop offset="0.278" stop-color="#9d0191"/><stop offset="1" stop-color="#fecd1a"/></linearGradient></defs><g transform="translate(-21 -203)"><path d="M9-2129a12,12,0,0,1,12-12,12.014,12.014,0,0,1,12,12,12,12,0,0,1-12,12A12,12,0,0,1,9-2129Zm5.571-4.714v9.429a.429.429,0,0,0,.429.429H27a.429.429,0,0,0,.429-.429v-9.429a.429.429,0,0,0-.429-.428H15A.429.429,0,0,0,14.571-2133.715Zm.857,9v-8.068l5.293,4.536a.428.428,0,0,0,.279.1.428.428,0,0,0,.279-.1l5.293-4.536v8.068Zm.73-8.572h9.683L21-2129.136Z" transform="translate(12 2344)" fill="url(#a)"/></g></svg>