<svg width="20" height="20" viewBox="0 0 20 20" fill="none" xmlns="http://www.w3.org/2000/svg">
<path fill-rule="evenodd" clip-rule="evenodd" d="M20 9.9999C19.9999 9.36545 19.9419 8.73227 19.8269 8.10791H10.207V11.8919H16.029C15.6645 13.1706 14.8791 14.2955 13.7949 15.0919L16.7983 17.4399C18.7809 15.6063 20 12.9535 20 9.9999Z" fill="#3284FF"/>
<path fill-rule="evenodd" clip-rule="evenodd" d="M10.3328 4.05441C11.73 4.05012 13.0814 4.54242 14.1363 5.44L16.9126 2.67762C15.1239 0.955719 12.7147 -0.00629708 10.207 3.10228e-05C6.28753 3.10228e-05 2.79428 2.25522 1.09338 5.5368L4.50661 8.08639C5.37951 5.736 7.69854 4.05441 10.3328 4.05441Z" fill="#FF3424"/>
<path fill-rule="evenodd" clip-rule="evenodd" d="M1.15789 14.584L4.44863 12.0184C4.01586 10.7387 4.03629 9.35339 4.50661 8.08645L1.09338 5.53687C-0.386915 8.3837 -0.362857 11.7577 1.15789 14.584Z" fill="#FFBB00"/>
<path fill-rule="evenodd" clip-rule="evenodd" d="M4.44864 12.0183L1.1579 14.5839C2.88084 17.7999 6.33653 19.9999 10.207 19.9999C12.6585 20.0091 15.0192 19.0922 16.7983 17.4399L13.795 15.0983C12.795 15.8287 11.5801 16.2217 10.3328 16.2183C7.63731 16.2159 5.27173 14.4551 4.44864 12.0183Z" fill="#26B14C"/>
</svg>
