<svg width="78" height="45" viewBox="0 0 78 45" fill="none" xmlns="http://www.w3.org/2000/svg" data-v-c4c814cc="" data-v-4871ca9a=""><path d="M52.4027 14.2709C44.3386 9.61558 31.1429 9.61558 23.0789 14.2709C15.0149 18.9263 15.0149 26.5442 23.0789 31.1996C31.1429 35.8549 44.3386 35.8549 52.4027 31.1996C60.4667 26.5442 60.4667 18.9263 52.4027 14.2709ZM21.4033 22.7353C21.4033 20.196 23.1836 17.838 26.0113 16.2056L26.116 29.3253C23.2884 27.572 21.4033 25.2745 21.4033 22.7353ZM29.0484 30.6554L29.0484 14.8151C35.332 12.5176 43.815 12.9408 49.2608 16.0847C53.1358 18.3217 54.602 21.3447 53.8689 24.1863L50.9365 24.0654C51.5648 21.647 50.3081 19.1077 47.1663 17.2939C43.0819 14.936 37.0077 14.4523 31.9808 15.7824V29.6881C36.0651 30.8368 40.9873 30.6554 44.8623 29.2649L39.8353 26.3628L41.9299 25.1536L49.2608 29.3858C43.815 32.5297 35.332 32.9529 29.0484 30.6554Z" fill="#297495" data-v-c4c814cc="" data-v-4871ca9a=""></path></svg>