<svg xmlns="http://www.w3.org/2000/svg" xmlns:xlink="http://www.w3.org/1999/xlink" width="24" height="24" viewBox="0 0 24 24"><defs><linearGradient id="a" x1="0.5" x2="0.5" y2="1" gradientUnits="objectBoundingBox"><stop offset="0" stop-color="#fd3a69"/><stop offset="0.278" stop-color="#9d0191"/><stop offset="1" stop-color="#fecd1a"/></linearGradient></defs><path d="M211.728,209.364A2.364,2.364,0,1,1,209.364,207,2.364,2.364,0,0,1,211.728,209.364Zm0,0" transform="translate(-197.364 -197.364)" fill="url(#a)"/><path d="M146.827,137.12a2.348,2.348,0,0,0-1.346-1.346,3.923,3.923,0,0,0-1.317-.244c-.748-.034-.972-.041-2.866-.041s-2.118.007-2.866.041a3.926,3.926,0,0,0-1.317.244,2.349,2.349,0,0,0-1.346,1.346,3.925,3.925,0,0,0-.244,1.317c-.034.748-.041.972-.041,2.866s.007,2.118.041,2.866a3.924,3.924,0,0,0,.244,1.317,2.349,2.349,0,0,0,1.346,1.346,3.919,3.919,0,0,0,1.317.244c.748.034.972.041,2.866.041s2.118-.007,2.866-.041a3.919,3.919,0,0,0,1.317-.244,2.348,2.348,0,0,0,1.346-1.346,3.927,3.927,0,0,0,.244-1.317c.034-.748.041-.972.041-2.866s-.007-2.118-.041-2.866A3.919,3.919,0,0,0,146.827,137.12Zm-5.528,7.824a3.642,3.642,0,1,1,3.642-3.642A3.642,3.642,0,0,1,141.3,144.944Zm3.786-6.576a.851.851,0,1,1,.851-.851A.851.851,0,0,1,145.084,138.368Zm0,0" transform="translate(-129.299 -129.302)" fill="url(#a)"/><path d="M12,0A12,12,0,1,0,24,12,12,12,0,0,0,12,0Zm6.849,14.841a5.055,5.055,0,0,1-.32,1.673,3.523,3.523,0,0,1-2.015,2.015,5.059,5.059,0,0,1-1.672.32c-.735.034-.97.042-2.841.042s-2.106-.008-2.841-.042a5.059,5.059,0,0,1-1.672-.32,3.523,3.523,0,0,1-2.015-2.015,5.054,5.054,0,0,1-.32-1.672c-.034-.735-.042-.97-.042-2.841s.008-2.106.042-2.841a5.056,5.056,0,0,1,.32-1.673A3.526,3.526,0,0,1,7.486,5.471a5.06,5.06,0,0,1,1.673-.32c.735-.034.97-.042,2.841-.042s2.106.008,2.841.042a5.061,5.061,0,0,1,1.673.32,3.524,3.524,0,0,1,2.015,2.015,5.055,5.055,0,0,1,.32,1.673c.034.735.041.97.041,2.841S18.883,14.106,18.849,14.841Zm0,0" fill="url(#a)"/></svg>