<svg xmlns="http://www.w3.org/2000/svg" xmlns:xlink="http://www.w3.org/1999/xlink" width="24" height="24" viewBox="0 0 24 24"><defs><linearGradient id="a" x1="0.5" x2="0.5" y2="1" gradientUnits="objectBoundingBox"><stop offset="0" stop-color="#fd3a69"/><stop offset="0.278" stop-color="#9d0191"/><stop offset="1" stop-color="#fecd1a"/></linearGradient></defs><path d="M12,0A12,12,0,1,0,24,12,12,12,0,0,0,12,0ZM8.513,18.141H5.59V9.348H8.513ZM7.052,8.147H7.033a1.523,1.523,0,1,1,.038-3.038,1.524,1.524,0,1,1-.019,3.038Zm12,9.993H16.129v-4.7c0-1.182-.423-1.988-1.481-1.988a1.6,1.6,0,0,0-1.5,1.069,2,2,0,0,0-.1.713v4.91H10.13s.038-7.968,0-8.793h2.922v1.245a2.9,2.9,0,0,1,2.634-1.451c1.923,0,3.365,1.257,3.365,3.957Zm0,0" fill="url(#a)"/></svg>