<svg xmlns="http://www.w3.org/2000/svg" width="22" height="22" viewBox="0 0 22 22">
  <g id="ojo" transform="translate(-2 -50)">
    <path id="Path_2" data-name="Path 2" d="M57.971,58.286H52.314a.314.314,0,1,1,0-.629h5.343V52.314a.314.314,0,1,1,.629,0v5.657A.314.314,0,0,1,57.971,58.286Z" transform="translate(-34.286 13.714)" fill="#ffd2d2"/>
    <path id="Path_3" data-name="Path 3" d="M57.971,8.286a.314.314,0,0,1-.314-.314V2.629H52.314a.314.314,0,0,1,0-.629h5.657a.314.314,0,0,1,.314.314V7.971A.314.314,0,0,1,57.971,8.286Z" transform="translate(-34.286 48)" fill="#ffd2d2"/>
    <path id="Path_4" data-name="Path 4" d="M7.971,58.286H2.314A.314.314,0,0,1,2,57.971V52.314a.314.314,0,0,1,.629,0v5.343H7.971a.314.314,0,1,1,0,.629Z" transform="translate(0 13.714)" fill="#ffd2d2"/>
    <path id="Path_5" data-name="Path 5" d="M2.314,8.286A.314.314,0,0,1,2,7.971V2.314A.314.314,0,0,1,2.314,2H7.971a.314.314,0,1,1,0,.629H2.629V7.971A.314.314,0,0,1,2.314,8.286Z" transform="translate(0 48)" fill="#ffd2d2"/>
    <path id="Path_6" data-name="Path 6" d="M17.8,31.429A11.162,11.162,0,0,1,9.069,26.91a.314.314,0,0,1,0-.392A11.166,11.166,0,0,1,17.8,22a11.166,11.166,0,0,1,8.731,4.518.314.314,0,0,1,0,.392,13.492,13.492,0,0,1-1.323,1.435.314.314,0,1,1-.43-.459,12.821,12.821,0,0,0,1.1-1.172A10.485,10.485,0,0,0,17.8,22.629,10.491,10.491,0,0,0,9.72,26.714,10.491,10.491,0,0,0,17.8,30.8a9.551,9.551,0,0,0,4.182-.971.314.314,0,1,1,.273.566A10.17,10.17,0,0,1,17.8,31.429Z" transform="translate(-4.8 34.286)" fill="#ffd2d2"/>
    <path id="Path_7" data-name="Path 7" d="M54.045,44.411a.314.314,0,0,1-.168-.58c.163-.1.321-.215.479-.33a.314.314,0,1,1,.371.507c-.15.11-.328.238-.514.355A.314.314,0,0,1,54.045,44.411Z" transform="translate(-35.472 19.587)" fill="#ffd2d2"/>
    <path id="Path_8" data-name="Path 8" d="M26.714,31.429a4.714,4.714,0,1,1,4.714-4.714,4.714,4.714,0,0,1-4.714,4.714Zm0-8.8A4.086,4.086,0,1,0,30.8,26.714a4.086,4.086,0,0,0-4.086-4.086Z" transform="translate(-13.714 34.286)" fill="#ffd2d2"/>
    <path id="Path_9" data-name="Path 9" d="M32.2,34.4a2.2,2.2,0,1,1,0-4.4,2.066,2.066,0,0,1,.409.038.314.314,0,0,1,.247.251,1.578,1.578,0,0,0,1.257,1.257.314.314,0,0,1,.251.248,2.1,2.1,0,0,1,.036.406A2.2,2.2,0,0,1,32.2,34.4Zm0-3.771A1.571,1.571,0,1,0,33.771,32.2c0-.031,0-.063,0-.092a2.216,2.216,0,0,1-1.477-1.477C32.263,30.628,32.231,30.628,32.2,30.628Z" transform="translate(-19.2 28.8)" fill="#ffd2d2"/>
  </g>
</svg>
